<svg width="48" height="48" viewBox="0 0 48 48" fill="none" xmlns="http://www.w3.org/2000/svg">
  <g transform="translate(4, 0)">
    <path d="M18.5 6.5C20.9853 6.5 23 8.51472 23 11V13H31C32.6569 13 34 14.3431 34 16V24H36C38.4853 24 40.5 26.0147 40.5 28.5C40.5 30.9853 38.4853 33 36 33H34V41C34 42.6569 32.6569 44 31 44H23V42C23 39.5147 20.9853 37.5 18.5 37.5C16.0147 37.5 14 39.5147 14 42V44H6C4.34315 44 3 42.6569 3 41V33H5C7.48528 33 9.5 30.9853 9.5 28.5C9.5 26.0147 7.48528 24 5 24H3V16C3 14.3431 4.34315 13 6 13H14V11C14 8.51472 16.0147 6.5 18.5 6.5Z" stroke="#70E61C" stroke-width="2.5" stroke-linecap="round" stroke-linejoin="round"/>
  </g>
</svg>
